<?xml version="1.0" encoding="UTF-8"?>
<svg width="249px" height="249px" viewBox="0 0 249 249" version="1.1" xmlns="http://www.w3.org/2000/svg" xmlns:xlink="http://www.w3.org/1999/xlink">
    <!-- Generator: Sketch 53.2 (72643) - https://sketchapp.com -->
    <title>Group 2</title>
    <desc>Created with Sketch.</desc>
    <g id="Page-1" stroke="none" stroke-width="1" fill="none" fill-rule="evenodd">
        <g id="Direction-2" transform="translate(-63.000000, -312.000000)" fill="#FFFFFF" fill-rule="nonzero">
            <g id="noun_clock_2212068" transform="translate(63.000000, 312.000000)">
                <g id="Group">
                    <g id="Group-2" transform="translate(-0.000000, -0.000000)">
                        <path d="M124.5,249 C55.7405486,249 -5.41486048e-15,193.259451 -1.42108547e-14,124.5 C-2.3006849e-14,55.7405486 55.7405486,8.36199796e-14 124.5,7.10542736e-14 C193.259451,5.84885675e-14 249,55.7405486 249,124.5 C249,157.519453 235.883073,189.186515 212.534794,212.534794 C189.186515,235.883073 157.519453,249 124.5,249 Z M124.5,11.3181818 C61.9914079,11.3181818 11.3181818,61.9914079 11.3181818,124.5 C11.3181818,187.008592 61.9914079,237.681818 124.5,237.681818 C187.008592,237.681818 237.681818,187.008592 237.681818,124.5 C237.681818,94.4823155 225.757339,65.6940771 204.531631,44.4683689 C183.305923,23.2426606 154.517685,11.3181818 124.5,11.3181818 L124.5,11.3181818 Z" id="Shape"></path>
                        <path d="M124.5,22.6363636 C121.37457,22.6363636 118.840909,20.1027023 118.840909,16.9772727 L118.840909,5.65909091 C118.840909,2.5336613 121.37457,-5.86197757e-14 124.5,-5.86197757e-14 C127.62543,-5.86197757e-14 130.159091,2.5336613 130.159091,5.65909091 L130.159091,16.9772727 C130.159091,20.1027023 127.62543,22.6363636 124.5,22.6363636 Z" id="Path"></path>
                        <path d="M70.7386364,37.0670455 C68.7088067,37.075104 66.8301341,35.9954071 65.8152273,34.2375 L60.1561364,24.3906818 C58.5934217,21.6715581 59.5308764,18.2004422 62.2500001,16.6377274 C64.9691238,15.0750127 68.4402397,16.0124673 70.0029545,18.7315909 L75.6620455,28.5784091 C77.1978565,31.2833367 76.2626811,34.7207384 73.5681818,36.2747727 C72.7112098,36.7833925 71.7351242,37.0566965 70.7386364,37.0670455 Z" id="Path"></path>
                        <path d="M31.3513636,76.3977273 C30.3791983,76.3947524 29.4241924,76.1413835 28.5784091,75.6620455 L18.7315909,70.0029545 C16.0124673,68.4402397 15.0750127,64.9691238 16.6377274,62.2500001 C18.2004422,59.5308764 21.6715581,58.5934217 24.3906818,60.1561364 L34.2375,65.8152273 C35.5376431,66.5714402 36.4832638,67.8141153 36.8655171,69.2688016 C37.2477704,70.7234879 37.0352071,72.2705033 36.2747727,73.5681818 C35.2598659,75.326089 33.3811933,76.4057859 31.3513636,76.3977273 Z" id="Path"></path>
                        <path d="M16.9772727,130.159091 L5.65909091,130.159091 C2.5336613,130.159091 5.5067062e-14,127.62543 5.5067062e-14,124.5 C5.5067062e-14,121.37457 2.5336613,118.840909 5.65909091,118.840909 L16.9772727,118.840909 C20.1027023,118.840909 22.6363636,121.37457 22.6363636,124.5 C22.6363636,127.62543 20.1027023,130.159091 16.9772727,130.159091 Z" id="Path"></path>
                        <path d="M21.5611364,189.579545 C18.9840264,189.597564 16.7202301,187.87208 16.0545317,185.382368 C15.3888333,182.892656 16.4893875,180.267614 18.7315909,178.997045 L28.5784091,173.337955 C31.2975328,171.77524 34.7686488,172.712694 36.3313636,175.431818 C37.8940784,178.150942 36.9566238,181.622058 34.2375,183.184773 L24.3906818,188.843864 C23.5282199,189.332698 22.5524754,189.586392 21.5611364,189.579545 Z" id="Path"></path>
                        <path d="M65.0795455,233.097955 C64.0830576,233.087606 63.106972,232.814302 62.25,232.305682 C59.5555007,230.751647 58.6203253,227.314246 60.1561364,224.609318 L65.8152273,214.7625 C66.8261265,213.003535 68.6986324,211.917493 70.7273901,211.913475 C72.7561478,211.909457 74.6329407,212.988074 75.6507992,214.743021 C76.6686576,216.497968 76.6729447,218.662626 75.6620455,220.421591 L70.0029545,230.268409 C68.9880477,232.026316 67.1093751,233.106013 65.0795455,233.097955 Z" id="Path"></path>
                        <path d="M124.5,249 C121.37457,249 118.840909,246.466339 118.840909,243.340909 L118.840909,232.022727 C118.840909,228.897298 121.37457,226.363636 124.5,226.363636 C127.62543,226.363636 130.159091,228.897298 130.159091,232.022727 L130.159091,243.340909 C130.159091,246.466339 127.62543,249 124.5,249 Z" id="Path"></path>
                        <path d="M183.920455,233.097955 C181.890625,233.106013 180.011952,232.026316 178.997045,230.268409 L173.337955,220.421591 C172.327055,218.662626 172.331342,216.497968 173.349201,214.743021 C174.367059,212.988074 176.243852,211.909457 178.27261,211.913475 C180.301368,211.917493 182.173874,213.003535 183.184773,214.7625 L188.843864,224.609318 C190.379675,227.314246 189.444499,230.751647 186.75,232.305682 C185.893028,232.814302 184.916942,233.087606 183.920455,233.097955 Z" id="Path"></path>
                        <path d="M227.438864,189.579545 C226.447525,189.586392 225.47178,189.332698 224.609318,188.843864 L214.7625,183.184773 C213.003535,182.173874 211.917493,180.301368 211.913475,178.27261 C211.909457,176.243852 212.988074,174.367059 214.743021,173.349201 C216.497968,172.331342 218.662626,172.327055 220.421591,173.337955 L230.268409,178.997045 C232.510613,180.267614 233.611167,182.892656 232.945468,185.382368 C232.27977,187.87208 230.015974,189.597564 227.438864,189.579545 L227.438864,189.579545 Z" id="Path"></path>
                        <path d="M243.340909,130.159091 L232.022727,130.159091 C228.897298,130.159091 226.363636,127.62543 226.363636,124.5 C226.363636,121.37457 228.897298,118.840909 232.022727,118.840909 L243.340909,118.840909 C246.466339,118.840909 249,121.37457 249,124.5 C249,127.62543 246.466339,130.159091 243.340909,130.159091 Z" id="Path"></path>
                        <path d="M217.648636,76.3977273 C215.618807,76.4057859 213.740134,75.326089 212.725227,73.5681818 C211.987259,72.235962 211.817401,70.6625296 212.254043,69.2035059 C212.690685,67.7444822 213.696968,66.5230336 215.045455,65.8152273 L224.892273,60.1561364 C227.611396,58.5934216 231.082512,59.5308762 232.645227,62.25 C234.207942,64.9691238 233.270487,68.4402397 230.551364,70.0029545 L220.704545,75.6620455 C219.775815,76.1909178 218.716306,76.4459849 217.648636,76.3977273 Z" id="Path"></path>
                        <path d="M178.261364,37.0670455 C177.264876,37.0566965 176.28879,36.7833925 175.431818,36.2747727 C172.737319,34.7207384 171.802143,31.2833367 173.337955,28.5784091 L178.997045,18.7315909 C180.007945,16.9726263 181.880451,15.8865842 183.909208,15.8825663 C185.937966,15.8785484 187.814759,16.957165 188.832617,18.7121117 C189.850476,20.4670585 189.854763,22.6317172 188.843864,24.3906818 L183.184773,34.2375 C182.169866,35.9954071 180.291193,37.075104 178.261364,37.0670455 Z" id="Path"></path>
                    </g>
                </g>
            </g>
        </g>
    </g>
</svg>