<?xml version="1.0" encoding="UTF-8"?>
<svg width="268px" height="454px" viewBox="0 0 268 454" version="1.1" xmlns="http://www.w3.org/2000/svg" xmlns:xlink="http://www.w3.org/1999/xlink">
    <!-- Generator: Sketch 53.2 (72643) - https://sketchapp.com -->
    <title>noun_hipster_602915</title>
    <desc>Created with Sketch.</desc>
    <g id="Page-1" stroke="none" stroke-width="1" fill="none" fill-rule="evenodd">
        <g id="Elevation-2" transform="translate(-52.000000, -179.000000)" fill="#9013FE" fill-rule="nonzero">
            <g id="noun_hipster_602915" transform="translate(52.000000, 179.000000)">
                <g id="Group">
                    <polygon id="Path" points="141.760336 293.11058 123.02995 293.11058 110.543026 283.112777 104.92391 290.611129 119.908219 302.48352 145.506413 302.48352 158.617684 289.986267 151.749875 283.112777"></polygon>
                    <path d="M260.386115,201.255768 C256.015691,198.131455 249.772229,198.131455 246.026152,198.756317 L248.523537,162.514283 C254.766999,150.641892 260.386115,130.021424 259.761768,115.02472 C259.137422,94.4042518 257.264384,83.1567238 247.899191,85.0313118 C239.158344,86.9058998 231.041843,105.65178 231.041843,105.65178 C231.041843,105.65178 234.78792,132.520875 238.533998,162.514283 L236.036613,193.757416 L217.930573,195.007141 C205.443649,191.882828 194.205417,190.00824 183.591532,190.00824 C162.363761,190.00824 149.876837,196.256867 144.257721,199.38118 L121.781258,199.38118 C116.162142,196.256867 103.675218,190.00824 82.4474471,190.00824 C71.8335616,190.00824 59.9709838,191.882828 47.4840598,195.007141 L27.5049813,193.132553 L23.7589041,153.766205 C38.743213,162.514283 64.3414072,178.135849 56.8492528,173.761811 C38.743213,162.514283 26.8806351,96.9037025 79.9500623,96.2788398 C133.643836,95.6539771 162.988107,108.776093 187.337609,95.6539771 C211.687111,81.9069985 226.047073,98.7782905 226.047073,98.7782905 C226.047073,98.7782905 252.89396,64.4108438 238.533998,42.5406504 C224.174035,20.670457 181.094147,-8.69808833 120.532565,3.79916502 C97.4317559,8.17320369 73.7066002,13.172105 52.4788294,23.1699077 C35.6214819,30.6682597 21.2615193,42.5406504 14.3937111,59.4119424 C5.02851806,81.2821358 6.90155666,107.526368 10.6476339,130.646287 C13.1450187,145.018128 15.6424035,158.765107 16.8910959,173.136948 C17.5154421,181.260163 18.7641345,190.00824 19.3884807,198.131455 C15.6424035,197.506592 10.6476339,198.131455 6.90155666,200.630905 C4.40417186,202.505493 0.658094645,206.879532 0.658094645,214.377884 C0.658094645,231.874039 11.2719801,274.3647 11.8963263,275.614425 L12.5206725,277.489013 L14.3937111,278.738739 C15.6424035,279.363601 20.6371731,282.487915 25.6319427,282.487915 C26.8806351,282.487915 27.5049813,282.487915 28.7536737,281.863052 C36.8701743,328.727752 50.6057908,378.091903 82.4474471,414.9588 C89.3152553,423.082015 96.8074097,429.955504 104.92391,436.204131 C109.294334,439.328444 113.664757,442.452758 118.035181,445.577071 C121.781258,447.451659 128.649066,453.700286 133.019489,453.700286 C133.019489,453.700286 133.643836,453.700286 133.643836,453.700286 C177.34807,433.70468 206.692341,392.463744 221.052304,348.098495 C222.925342,342.474731 242.904421,282.487915 240.407036,281.863052 C241.655729,281.863052 242.280075,282.487915 243.528767,282.487915 C248.523537,282.487915 252.89396,279.988464 254.142653,279.363601 L256.015691,278.113876 L256.640037,276.239288 C257.264384,274.3647 267.878269,232.498901 267.878269,215.002747 C266.629577,206.879532 263.507846,203.130356 260.386115,201.255768 Z M26.2562889,273.114975 C25.6319427,273.739837 23.1345579,273.114975 20.6371731,271.865249 C18.7641345,263.117172 10.0232877,228.749725 10.0232877,215.002747 C10.0232877,211.878433 10.6476339,210.003845 11.8963263,208.75412 C13.7693649,207.504395 17.5154421,207.504395 20.0128269,208.129257 L26.2562889,269.365799 L26.2562889,269.365799 C26.8806351,272.490112 26.2562889,273.114975 26.2562889,273.114975 Z M151.749875,379.341628 C144.882067,377.46704 136.765567,361.845474 133.643836,355.596847 L132.395143,355.596847 C129.273412,361.845474 121.156912,377.46704 114.289103,379.341628 C109.91868,380.591354 96.1830635,373.717864 79.3257161,354.347122 L79.9500623,353.722259 C84.9448319,349.973083 94.9343711,343.099593 105.548257,337.475829 L108.669988,344.974181 L156.120299,344.974181 L160.490722,336.850967 C171.728954,342.474731 181.718493,349.973083 186.713263,353.722259 C169.855915,373.093002 156.120299,380.591354 151.749875,379.341628 Z M114.289103,333.101791 C121.156912,329.977477 128.02472,327.478027 133.643836,327.478027 C139.262951,327.478027 145.506413,329.977477 152.374222,332.476928 L151.125529,334.976379 L114.91345,334.976379 L114.289103,333.101791 Z M231.666189,266.866348 L231.666189,268.116073 C231.666189,271.240387 231.041843,274.3647 230.417497,277.489013 C219.179265,305.607833 197.968738,338.07922 186.730506,353.700787 C184.588484,351.84455 152.400262,327.736357 133.643836,327.736357 C115.0133,327.736357 79.5081003,353.619289 79.3257161,354.349429 C69.3361768,340.60245 49.9814446,312.481323 39.3675592,288.736541 C38.1188667,283.112777 36.8701743,276.864151 36.2458281,270.615524 L29.3780199,203.755219 L37.4945205,204.380081 C35.6214819,213.753021 32.4997509,241.246979 53.7275218,256.243683 C61.2196762,261.242584 69.960523,264.366897 79.3257161,264.366897 C91.8126401,264.366897 103.675218,259.367996 111.791719,251.244781 C118.035181,244.996155 124.278643,220.001648 126.151681,210.003845 L141.13599,210.003845 C143.009029,220.001648 149.876837,244.996155 155.495953,251.244781 C163.612453,259.367996 175.475031,264.366897 187.961955,264.366897 C197.327148,264.366897 206.067995,261.867447 213.560149,256.243683 C234.78792,241.246979 231.666189,213.128159 229.793151,203.755219 L236.036613,203.130356 L231.666189,266.866348 Z M246.650498,271.865249 C244.77746,272.490112 242.280075,273.114975 241.655729,272.490112 C241.655729,272.490112 241.031382,271.240387 241.031382,267.491211 L245.401806,207.504395 C247.274844,206.879532 252.269614,206.254669 254.766999,208.129257 C256.015691,209.378983 256.640037,211.253571 256.640037,214.377884 C257.264384,229.374588 249.147883,263.117172 246.650498,271.865249 Z" id="Shape"></path>
                </g>
            </g>
        </g>
    </g>
</svg>