<?xml version="1.0" encoding="UTF-8"?>
<svg width="136px" height="44px" viewBox="0 0 136 44" version="1.1" xmlns="http://www.w3.org/2000/svg" xmlns:xlink="http://www.w3.org/1999/xlink">
    <!-- Generator: Sketch 53.2 (72643) - https://sketchapp.com -->
    <title>noun_Mustache_1918593</title>
    <desc>Created with Sketch.</desc>
    <g id="Page-1" stroke="none" stroke-width="1" fill="none" fill-rule="evenodd">
        <g id="Elevation-2" transform="translate(-116.000000, -649.000000)" fill="#FFFFFF" fill-rule="nonzero">
            <g id="noun_Mustache_1918593" transform="translate(116.000000, 649.000000)">
                <path d="M126.574799,9.82666667 C135.356287,20.7191111 124.952555,29.7635556 116.821906,27.0648889 C98.676087,20.6702222 98.7926554,0 82.6867835,0 C82.6284993,0 82.5799291,0 82.5216449,0 C74.5172792,0.127111111 68.0574452,6.62933333 68.0574452,14.6471111 L68.0574452,14.7057778 C68.0574452,6.65866667 61.5781831,0.127111111 53.5446752,0.00977777778 C53.5058191,0.00977777778 53.466963,0.00977777778 53.4281068,0.00977777778 C37.2736648,0.00977777778 37.4388034,20.68 19.292984,27.0746667 C11.1623357,29.7635556 0.748889033,20.7191111 9.53037767,9.82666667 C-6.18693274,19.5946667 -4.28298167,44 29.0458762,44 C62.3747341,44 68.0574452,29.3528889 68.0574452,29.3528889 C68.0574452,29.3528889 73.400165,44 106.729023,44 C140.057881,44 142.301823,19.5946667 126.574799,9.82666667 Z" id="Path"></path>
            </g>
        </g>
    </g>
</svg>