<?xml version="1.0" encoding="UTF-8"?>
<svg width="65px" height="66px" viewBox="0 0 65 66" version="1.1" xmlns="http://www.w3.org/2000/svg" xmlns:xlink="http://www.w3.org/1999/xlink">
    <!-- Generator: Sketch 53.2 (72643) - https://sketchapp.com -->
    <title>noun_Satellite_1556189 Copy</title>
    <desc>Created with Sketch.</desc>
    <g id="Page-1" stroke="none" stroke-width="1" fill="none" fill-rule="evenodd" opacity="0.504092262">
        <g id="Finding-Sattelie-1" transform="translate(-56.000000, -456.000000)" fill="#FFFFFF" fill-rule="nonzero">
            <g id="noun_Satellite_1556189-Copy" transform="translate(89.000000, 489.000000) scale(-1, 1) rotate(-180.000000) translate(-89.000000, -489.000000) translate(56.000000, 456.000000)">
                <path d="M56,12.85 L59.54,9.31 C60.0455308,8.80446919 60.2429631,8.06764198 60.0579259,7.37707405 C59.8728888,6.68650613 59.3334939,6.14711117 58.6429259,5.96207405 C57.952358,5.77703693 57.2155308,5.97446919 56.71,6.48 L53.15,10 L44.66,1.51 C44.2848635,1.13444591 43.7758185,0.923426687 43.245,0.923426687 C42.7141815,0.923426687 42.2051365,1.13444591 41.83,1.51 C38.8580149,4.47233456 37.2159724,8.51428529 37.28,12.71 C37.3176294,16.2430901 38.5236883,19.664359 40.71,22.44 L39,24.16 L34.05,19.21 C33.6748635,18.8344459 33.1658185,18.6234267 32.635,18.6234267 C32.1041815,18.6234267 31.5951365,18.8344459 31.22,19.21 L26.27,24.16 L24.16,22 L27.7,18.5 C28.0755541,18.1248635 28.2865733,17.6158185 28.2865733,17.085 C28.2865733,16.5541815 28.0755541,16.0451365 27.7,15.67 L14.26,2.24 C13.8848635,1.86444591 13.3758185,1.65342669 12.845,1.65342669 C12.3141815,1.65342669 11.8051365,1.86444591 11.43,2.24 L1.53,12.14 C1.15444591,12.5151365 0.943426687,13.0241815 0.943426687,13.555 C0.943426687,14.0858185 1.15444591,14.5948635 1.53,14.97 L15,28.4 C15.3751365,28.7755541 15.8841815,28.9865733 16.415,28.9865733 C16.9458185,28.9865733 17.4548635,28.7755541 17.83,28.4 L21.37,24.86 L23.45,27 L17.09,33.36 C16.7144459,33.7351365 16.5034267,34.2441815 16.5034267,34.775 C16.5034267,35.3058185 16.7144459,35.8148635 17.09,36.19 L18.5,37.6 L9.93,46.16 C9.55444591,46.5351365 9.34342669,47.0441815 9.34342669,47.575 C9.34342669,48.1058185 9.55444591,48.6148635 9.93,48.99 L17,56.06 C17.3751365,56.4355541 17.8841815,56.6465733 18.415,56.6465733 C18.9458185,56.6465733 19.4548635,56.4355541 19.83,56.06 L28.4,47.5 L29.81,48.91 C30.1851365,49.2855541 30.6941815,49.4965733 31.225,49.4965733 C31.7558185,49.4965733 32.2648635,49.2855541 32.64,48.91 L39,42.55 L41.12,44.67 L37.6,48.2 C37.2244459,48.5751365 37.0134267,49.0841815 37.0134267,49.615 C37.0134267,50.1458185 37.2244459,50.6548635 37.6,51.03 L51,64.47 C51.3751365,64.8455541 51.8841815,65.0565733 52.415,65.0565733 C52.9458185,65.0565733 53.4548635,64.8455541 53.83,64.47 L63.73,54.57 C64.1055541,54.1948635 64.3165733,53.6858185 64.3165733,53.155 C64.3165733,52.6241815 64.1055541,52.1151365 63.73,51.74 L50.32,38.3 C49.9448635,37.9244459 49.4358185,37.7134267 48.905,37.7134267 C48.3741815,37.7134267 47.8651365,37.9244459 47.49,38.3 L44,41.84 L41.88,39.72 L46.83,34.77 C47.2055541,34.3948635 47.4165733,33.8858185 47.4165733,33.355 C47.4165733,32.8241815 47.2055541,32.3151365 46.83,31.94 L41.84,27 L43.54,25.3 C46.315641,27.4863117 49.7369099,28.6923706 53.27,28.73 L53.43,28.73 C57.5565581,28.7401168 61.516355,27.1022008 64.43,24.18 C64.8055541,23.8048635 65.0165733,23.2958185 65.0165733,22.765 C65.0165733,22.2341815 64.8055541,21.7251365 64.43,21.35 L56,12.85 Z M12.85,6.48 L23.45,17.09 L21.33,19.21 L10.73,8.6 L12.85,6.48 Z M16.39,24.16 L5.78,13.55 L7.9,11.43 L18.5,22 L16.39,24.16 Z M18.39,51.82 L14.15,47.58 L21.3,40.43 L25.54,44.67 L18.39,51.82 Z M52.39,60.23 L41.84,49.62 L44,47.5 L54.57,58.1 L52.39,60.23 Z M48.91,42.55 L59.52,53.15 L57.4,55.27 L46.79,44.67 L48.91,42.55 Z M31.23,44.67 L29.82,43.26 L29.82,43.26 L28.35,41.79 L21.35,34.79 L32.65,23.45 L42.55,33.35 L31.23,44.67 Z M53.31,24.67 C46.7274364,24.5629453 41.4170547,19.2525636 41.31,12.67 C41.275991,10.2432979 42.0072622,7.86754149 43.4,5.88 L60.1,22.63 C58.1068225,24.0100549 55.7341671,24.7368772 53.31,24.71 L53.31,24.67 Z" id="Shape"></path>
            </g>
        </g>
    </g>
</svg>