<?xml version="1.0" encoding="UTF-8"?>
<svg width="130px" height="130px" viewBox="0 0 130 130" version="1.1" xmlns="http://www.w3.org/2000/svg" xmlns:xlink="http://www.w3.org/1999/xlink">
    <!-- Generator: Sketch 53.2 (72643) - https://sketchapp.com -->
    <title>noun_world_2079127</title>
    <desc>Created with Sketch.</desc>
    <g id="Page-1" stroke="none" stroke-width="1" fill="none" fill-rule="evenodd">
        <g id="Finding-Sattelie-1" transform="translate(-122.000000, -522.000000)" fill="#FFFFFF" fill-rule="nonzero">
            <g id="noun_world_2079127" transform="translate(122.000000, 522.000000)">
                <g id="Group">
                    <path d="M64.9829508,130 C29.1871475,130 0.0649180328,100.841 0.0649180328,65 C0.0649180328,29.159 29.1871475,0 64.9829508,0 C100.778754,0 129.900984,29.159 129.900984,65 C129.900984,100.841 100.778754,130 64.9829508,130 Z M64.9829508,4.33333333 C31.5739672,4.33333333 4.39278689,31.5488333 4.39278689,65 C4.39278689,98.4511667 31.5739672,125.666667 64.9829508,125.666667 C98.3919344,125.666667 125.573115,98.4511667 125.573115,65 C125.573115,31.5488333 98.3919344,4.33333333 64.9829508,4.33333333 Z" id="Shape"></path>
                    <path d="M72.3316721,111.379667 C69.3908852,111.379667 66.6232131,109.607333 65.4763279,106.734333 L63.1046557,100.797667 C62.9813115,100.492167 62.8796066,100.173667 62.797377,99.8486667 L58.6945574,83.4145 C58.640459,83.1978333 58.5625574,82.9898333 58.4630164,82.7905 L56.2601311,78.3813333 C55.6174426,77.0921667 54.1957377,76.4465 52.7956721,76.7845 L50.7009836,77.3088333 C48.478623,77.8635 46.0874754,77.3435 44.3022295,75.9113333 L37.453377,70.4275 C35.6940984,69.0148333 34.6857049,66.9131667 34.6857049,64.6598333 L34.6857049,62.3393333 C34.6857049,60.7901667 35.1617705,59.3081667 36.0598033,58.0493333 L44.3498361,46.4295 C45.7325902,44.4903333 47.9765902,43.3355 50.3525902,43.3355 L54.8817049,43.3355 C56.2233443,43.3355 57.5368525,43.7016667 58.6794098,44.3906667 L66.528,49.1053333 L66.528,49.1053333 C67.1793443,49.4996667 67.9497049,49.634 68.6940984,49.4823333 L73.3876721,48.5398333 C76.791541,47.8573333 80.2495082,49.6816667 81.6149508,52.8753333 L85.7761967,62.5971667 C86.0272131,63.1821667 86.4643279,63.6848333 87.0074754,64.0076667 L91.2704262,66.5708333 C93.094623,67.6671667 94.3583607,69.5001667 94.7348852,71.5953333 C95.1114098,73.6948333 94.5639344,75.8528333 93.2352787,77.5168333 L89.4483934,82.2575 C89.0177705,82.797 88.7797377,83.4751667 88.7797377,84.1641667 L88.7797377,91.0043333 C88.7797377,92.95 87.9920656,94.8545 86.6179672,96.2281667 L84.2722623,98.5768333 C84.0948197,98.7545 83.9411803,98.9516667 83.8135082,99.164 L78.6438689,107.791667 C77.7393443,109.299667 76.3219672,110.439333 74.6535738,110.996167 C73.8897049,111.258333 73.1041967,111.379667 72.3316721,111.379667 Z M53.5660328,72.3558333 C56.3055738,72.3558333 58.8546885,73.8833333 60.1335738,76.4443333 L62.336459,80.8535 C62.5766557,81.3345 62.764918,81.8436667 62.8947541,82.3658333 L66.9975738,98.8 C67.0300328,98.9321667 67.0733115,99.06 67.123082,99.1856667 L69.496918,105.128833 C70.0963279,106.623833 71.7582295,107.397333 73.292459,106.890333 C73.9805902,106.6585 74.5670164,106.188333 74.943541,105.562167 L80.1110164,96.9366667 C80.420459,96.4231667 80.7926557,95.9443333 81.2189508,95.5175 L83.5668197,93.1645 C84.1359344,92.5968333 84.4605246,91.8103333 84.4605246,91.0065 L84.4605246,84.1663333 C84.4605246,82.4958333 85.0339672,80.86 86.0769836,79.5535 L89.8660328,74.8128333 C90.4243279,74.1151667 90.6428852,73.2463333 90.487082,72.3666667 C90.3291148,71.487 89.8205902,70.7481667 89.0545574,70.2888333 L84.7937705,67.7278333 C83.458623,66.9283333 82.4264262,65.7453333 81.8097049,64.3066667 L77.6462951,54.5826667 C77.0815082,53.2631667 75.6533115,52.5135 74.2467541,52.7908333 L69.5510164,53.7333333 C67.7462951,54.0995 65.8853115,53.7701667 64.3078033,52.8233333 L56.4548852,48.1065 C55.9809836,47.8205 55.44,47.671 54.8860328,47.671 L50.356918,47.671 C49.3744918,47.671 48.4483279,48.1498333 47.8770492,48.9493333 L39.5870164,60.5691667 C39.2148197,61.0891667 39.0179016,61.7023333 39.0179016,62.3415 L39.0179016,64.662 C39.0179016,65.5936667 39.435541,66.4625 40.162623,67.0475 L47.0093115,72.5291667 C47.7472131,73.1206667 48.7382951,73.3416667 49.6558033,73.1076667 L51.7483279,72.5855 C52.3542295,72.4295 52.964459,72.3558333 53.5660328,72.3558333 Z" id="Shape"></path>
                    <path d="M97.4419672,108.333333 C96.8706885,108.333333 96.3210492,108.108 95.9120656,107.6985 L91.5841967,103.365167 C91.0735082,102.853833 90.850623,102.119333 90.9934426,101.408667 L93.157377,90.5753333 C93.2417705,90.1571667 93.4473443,89.7715 93.7481311,89.4681667 L100.239934,82.9681667 C100.804721,82.4026667 101.635672,82.1925 102.397377,82.4265 C103.161246,82.6561667 103.734689,83.291 103.890492,84.0753333 L106.054426,94.9086667 C106.160459,95.4373333 106.065246,95.9855 105.788262,96.4491667 L99.296459,107.2825 C98.9545574,107.8545 98.3659672,108.235833 97.7059672,108.318167 C97.6172459,108.326833 97.5285246,108.333333 97.4419672,108.333333 Z M95.4619672,101.1205 L97.0113443,102.674 L101.646492,94.939 L100.439016,88.8961667 L97.2688525,92.0703333 L95.4619672,101.1205 Z" id="Shape"></path>
                    <path d="M121.23659,60.1943333 C117.837049,60.1943333 114.794557,57.8586667 113.933311,54.4418333 C113.424787,52.4225 112.78859,50.6913333 112.046361,49.2916667 C111.574623,48.4033333 110.726361,47.8356667 109.715803,47.7316667 C108.610033,47.6211667 107.532393,48.0718333 106.816131,48.9385 C102.460131,54.21 98.2166557,56.6475 94.1917377,56.1925 C89.3142295,55.6335 86.9468852,51.0011667 86.8473443,50.804 C76.8196721,30.7211667 58.904459,32.4566667 58.7270164,32.4891667 C58.6469508,32.4978333 58.5690492,32.5021667 58.4889836,32.5021667 C57.2858361,32.5021667 55.9506885,32.7925 54.5246557,33.3623333 C49.7423607,35.2776667 44.4580328,33.8411667 41.3744262,29.7895 C38.3535738,25.8158333 38.3708852,20.6505 41.4198689,16.6335 L41.6708852,16.3063333 C43.1899672,14.352 45.5140328,13.1083333 48.0415082,12.9025 C56.199541,12.2395 62.2650492,8.30916667 66.0714098,1.21983333 C66.4652459,0.485333333 67.2485902,0.0368333333 68.079541,0.0823333333 C99.6686557,1.56866667 125.447607,25.4453333 129.375148,56.8555 C129.515803,57.9865 128.758426,59.0351667 127.639672,59.2496667 C125.889049,59.5898333 124.067016,59.8866667 122.223344,60.1315 C121.892262,60.1726667 121.56118,60.1943333 121.23659,60.1943333 Z M109.382557,43.381 C109.640066,43.381 109.897574,43.3961667 110.155082,43.4221667 C112.626295,43.6735 114.708,45.0731667 115.867869,47.2571667 C116.774557,48.9645 117.536262,51.025 118.12918,53.3801667 C118.536,54.9921667 120.04859,56.0495 121.649902,55.835 C122.708066,55.6941667 123.759738,55.5338333 124.791934,55.3605 C120.364525,27.4863333 97.3921967,6.4155 69.1961311,4.485 C65.8723279,10.0403333 59.664,16.302 48.3942295,17.2206667 C47.0720656,17.329 45.8667541,17.966 45.0855738,18.9713333 L44.8713443,19.2486667 C42.6338361,22.1953333 43.3803934,25.2676667 44.8194098,27.1635 C46.2779016,29.081 49.2727869,30.8035 52.9190164,29.3388333 C54.8189508,28.5783333 56.6561311,28.1861667 58.3807869,28.1688333 C59.2550164,28.0886667 64.1736393,27.7831667 70.288918,29.9151667 C76.3436066,32.0255 84.8045902,37.024 90.718623,48.867 C90.7251148,48.8821667 92.1662951,51.6186667 94.708918,51.8916667 C97.152,52.1971667 100.17718,50.18 103.481508,46.1781667 C104.955148,44.395 107.116918,43.381 109.382557,43.381 Z" id="Shape"></path>
                    <path d="M7.83344262,60.6666667 L2.56209836,60.6666667 C1.94970492,60.6666667 1.36544262,60.4066667 0.956459016,59.9516667 C0.54747541,59.4966667 0.348393443,58.89 0.411147541,58.279 C1.66190164,46.1001667 6.336,34.5496667 13.9335738,24.8733333 C14.5676066,24.0651667 15.6820328,23.8138333 16.6017049,24.2753333 L24.7251148,28.3421667 C28.1203279,30.043 30.5222951,33.2973333 31.1455082,37.0478333 L31.3121311,38.038 C32.175541,43.2336667 29.5961311,48.308 24.8917377,50.6631667 L20.659082,52.7821667 C19.4819016,53.3715 18.4735082,54.2641667 17.7420984,55.3605 C15.5283934,58.682 11.8259016,60.6666667 7.83344262,60.6666667 Z M5.00734426,56.3333333 L7.83344262,56.3333333 C10.3739016,56.3333333 12.7325902,55.0701667 14.1413115,52.9533333 C15.2881967,51.2286667 16.8743607,49.829 18.7245246,48.9016667 L22.9571803,46.7826667 C25.9520656,45.2855 27.5944918,42.0528333 27.0448525,38.7465 L26.8782295,37.7563333 C26.8782295,37.7541667 26.8782295,37.7541667 26.8782295,37.7541667 C26.4800656,35.3665 24.9523279,33.2973333 22.7905574,32.214 L16.268459,28.9488333 C10.2851803,37.0391667 6.42472131,46.4295 5.00734426,56.3333333 Z" id="Shape"></path>
                    <path d="M26.5341639,116.807167 C26.0602623,116.807167 25.5928525,116.653333 25.2055082,116.352167 C11.0274098,105.323833 1.96485246,88.7791667 0.346229508,70.9605 C0.259672131,70.0245 0.787672131,69.1426667 1.64891803,68.7721667 L3.91455738,67.7993333 L3.91455738,67.7993333 C8.448,65.8536667 13.630623,66.8546667 17.1188852,70.3473333 L21.1286557,74.3621667 C22.2019672,75.4368333 23.5565902,76.1626667 25.045377,76.4616667 C30.6326557,77.5818333 34.6857049,82.5326667 34.6857049,88.2375 L34.6857049,88.8376667 C34.6857049,92.1028333 33.7314098,95.2618333 31.9223607,97.9745 C30.8512131,99.5821667 30.1739016,101.449833 29.9596721,103.367333 L28.6829508,114.881 C28.5963934,115.658833 28.0965246,116.332667 27.3759344,116.638167 C27.1054426,116.750833 26.8198033,116.807167 26.5341639,116.807167 Z M4.81908197,72.1261667 C6.55022951,86.8573333 13.728,100.546333 24.8268197,110.406833 L25.6599344,102.886333 C25.9499016,100.282 26.8695738,97.7513333 28.3215738,95.5673333 C29.6545574,93.5675 30.3578361,91.2405 30.3578361,88.8355 L30.3578361,88.2353333 C30.3578361,84.5888333 27.7676066,81.4233333 24.1949508,80.7083333 C21.8643934,80.2425 19.7437377,79.1071667 18.0666885,77.4236667 L14.056918,73.4088333 C11.8259016,71.1793333 8.51508197,70.538 5.61757377,71.7795 L4.81908197,72.1261667 Z" id="Shape"></path>
                </g>
            </g>
        </g>
    </g>
</svg>